<svg width="23" height="24" viewBox="0 0 23 24" fill="none" xmlns="http://www.w3.org/2000/svg">
<g id="Iconly/Bold/Profile">
<rect width="23" height="23" transform="translate(0 0.0246582)" fill="white"/>
<g id="Profile">
<path id="Profile_2" fill-rule="evenodd" clip-rule="evenodd" d="M16.535 7.11662C16.535 9.97489 14.2819 12.292 11.5025 12.292C8.72314 12.292 6.47001 9.97489 6.47001 7.11662C6.47001 4.25836 8.72314 1.94128 11.5025 1.94128C14.2819 1.94128 16.535 4.25836 16.535 7.11662ZM15.822 15.2079C17.4221 15.5319 18.4668 16.0605 18.9145 16.9131C19.2507 17.5785 19.2507 18.3707 18.9145 19.0361C18.4668 19.8887 17.4636 20.4514 15.8054 20.7413C15.0666 20.8903 14.3186 20.9872 13.5669 21.0312C12.8705 21.108 12.1741 21.108 11.4694 21.108H10.2009C9.93556 21.0738 9.67854 21.0568 9.42982 21.0568C8.67807 21.0181 7.92999 20.9241 7.19131 20.7754C5.59119 20.4685 4.54655 19.9228 4.09885 19.0702C3.92602 18.7399 3.8349 18.371 3.83354 17.9959C3.82994 17.6186 3.9183 17.2463 4.09056 16.9131C4.52997 16.0605 5.57461 15.5063 7.19131 15.2079C7.93324 15.0623 8.68388 14.9683 9.43811 14.9265C10.8178 14.8153 12.2038 14.8153 13.5835 14.9265C14.3348 14.9703 15.0826 15.0643 15.822 15.2079Z" fill="#5669FF"/>
</g>
</g>
</svg>
