<svg width="20" height="20" viewBox="0 0 20 20" fill="none" xmlns="http://www.w3.org/2000/svg">
<g id="Group 18461">
<path id="Calendar" fill-rule="evenodd" clip-rule="evenodd" d="M14.8869 1.15334L14.888 1.87173C17.7642 2.07863 19.6642 3.87748 19.6673 6.63609L19.6786 14.7108C19.6827 17.7185 17.624 19.569 14.3241 19.5738L6.26338 19.5834C2.98406 19.5872 0.899565 17.6926 0.895441 14.6763L0.884101 6.69644C0.879978 3.91962 2.71293 2.12556 5.58917 1.88322L5.58814 1.16483C5.58711 0.743378 5.92731 0.426329 6.38091 0.426329C6.83451 0.425371 7.17471 0.741463 7.17574 1.16292L7.17677 1.83342L13.3004 1.82575L13.2993 1.15526C13.2983 0.7338 13.6385 0.417708 14.0921 0.41675C14.5354 0.415792 14.8859 0.731884 14.8869 1.15334ZM2.47275 6.99236L18.0807 6.9732V6.63795C18.0364 4.57857 16.9106 3.49811 14.89 3.33719L14.8911 4.07474C14.8911 4.48661 14.5416 4.81324 14.0983 4.81324C13.6447 4.8142 13.3035 4.48853 13.3035 4.07665L13.3024 3.30079L7.17885 3.30845L7.17988 4.08336C7.17988 4.49619 6.84071 4.82186 6.38711 4.82186C5.93351 4.82282 5.59228 4.49811 5.59228 4.08527L5.59125 3.34772C3.58098 3.53259 2.46862 4.61688 2.47172 6.69446L2.47275 6.99236ZM13.6644 11.3458V11.3563C13.6747 11.7969 14.0664 12.1312 14.5417 12.1216C15.0056 12.1111 15.3757 11.7462 15.3654 11.3055C15.3437 10.8841 14.9715 10.5402 14.5087 10.5412C14.0345 10.5508 13.6633 10.9052 13.6644 11.3458ZM14.5158 15.6465C14.0416 15.637 13.6591 15.2739 13.6581 14.8333C13.6477 14.3927 14.0282 14.0278 14.5024 14.0172H14.5127C14.9972 14.0172 15.39 14.3803 15.39 14.8305C15.391 15.2806 14.9993 15.6456 14.5158 15.6465ZM9.41693 11.3612C9.43755 11.8018 9.83032 12.1457 10.3045 12.1265C10.7684 12.1064 11.1385 11.7424 11.1179 11.3018C11.1066 10.8708 10.7252 10.5355 10.2612 10.5365C9.78702 10.5557 9.4159 10.9206 9.41693 11.3612ZM10.3087 15.6035C9.83453 15.6227 9.44278 15.2788 9.42113 14.8382C9.42113 14.3976 9.79123 14.0336 10.2654 14.0135C10.7294 14.0125 11.1118 14.3478 11.1221 14.7779C11.1438 15.2194 10.7727 15.5834 10.3087 15.6035ZM5.16963 11.3947C5.19025 11.8353 5.58302 12.1801 6.05724 12.16C6.52115 12.1408 6.89124 11.7759 6.8696 11.3353C6.85929 10.9042 6.47785 10.569 6.01291 10.57C5.53869 10.5891 5.1686 10.9541 5.16963 11.3947ZM6.06132 15.6082C5.5871 15.6283 5.19536 15.2835 5.17371 14.8429C5.17268 14.4023 5.5438 14.0373 6.01802 14.0182C6.48193 14.0172 6.8644 14.3525 6.87471 14.7835C6.89635 15.2241 6.52626 15.589 6.06132 15.6082Z" fill="#5669FF"/>
</g>
</svg>
