<svg width="23" height="24" viewBox="0 0 23 24" fill="none" xmlns="http://www.w3.org/2000/svg">
<g id="Iconly/Bold/Profile">
<g id="Profile">
<path id="Profile_2" fill-rule="evenodd" clip-rule="evenodd" d="M16.535 7.61662C16.535 10.4749 14.2819 12.792 11.5025 12.792C8.72314 12.792 6.47001 10.4749 6.47001 7.61662C6.47001 4.75836 8.72314 2.44128 11.5025 2.44128C14.2819 2.44128 16.535 4.75836 16.535 7.61662ZM15.822 15.7079C17.4221 16.0319 18.4668 16.5605 18.9145 17.4131C19.2507 18.0785 19.2507 18.8707 18.9145 19.5361C18.4668 20.3887 17.4636 20.9514 15.8054 21.2413C15.0666 21.3903 14.3186 21.4872 13.5669 21.5312C12.8705 21.608 12.1741 21.608 11.4694 21.608H10.2009C9.93555 21.5738 9.67854 21.5568 9.42982 21.5568C8.67807 21.5181 7.92998 21.4241 7.19131 21.2754C5.59118 20.9685 4.54654 20.4228 4.09884 19.5702C3.92601 19.2399 3.8349 18.871 3.83354 18.4959C3.82993 18.1186 3.91829 17.7463 4.09055 17.4131C4.52996 16.5605 5.5746 16.0063 7.19131 15.7079C7.93324 15.5623 8.68387 15.4683 9.43811 15.4265C10.8178 15.3153 12.2038 15.3153 13.5835 15.4265C14.3348 15.4703 15.0826 15.5643 15.822 15.7079Z" fill="#2C3550"/>
</g>
</g>
</svg>
