<svg width="24" height="24" viewBox="0 0 24 24" fill="none" xmlns="http://www.w3.org/2000/svg">
<g id="Iconly/Bold/Location">
<g id="Location">
<path id="Location_2" fill-rule="evenodd" clip-rule="evenodd" d="M11.6699 2.50002C13.8357 2.5096 15.9057 3.3721 17.4199 4.88627C18.9436 6.41002 19.7965 8.47044 19.7869 10.6075V10.6554C19.7294 13.5592 18.1003 16.2329 16.0686 18.3221C14.9186 19.5009 13.644 20.5454 12.2544 21.4271C11.8807 21.7434 11.3344 21.7434 10.9607 21.4271C8.90027 20.0854 7.07944 18.3988 5.6036 16.4342C4.30985 14.7284 3.57194 12.6775 3.49527 10.5404C3.51444 6.08419 7.17527 2.49044 11.6699 2.50002ZM11.6699 13.2909C12.3503 13.2909 13.0019 13.0321 13.4811 12.5625C13.9794 12.0738 14.2583 11.4231 14.2583 10.7417C14.2583 9.32335 13.0978 8.18293 11.6699 8.18293C10.2419 8.18293 9.09194 9.32335 9.09194 10.7417C9.09194 12.1418 10.2228 13.2717 11.6411 13.2909H11.6699Z" fill="#5669FF"/>
</g>
</g>
</svg>
