<svg width="23" height="24" viewBox="0 0 23 24" fill="none" xmlns="http://www.w3.org/2000/svg">
<g id="Iconly/Bold/Location">
<g id="Location">
<path id="Location_2" fill-rule="evenodd" clip-rule="evenodd" d="M11.5288 2.41677C13.6946 2.42635 15.7646 3.28885 17.2788 4.80302C18.8025 6.32677 19.6554 8.38718 19.6459 10.5243V10.5722C19.5884 13.4759 17.9592 16.1497 15.9275 18.2388C14.7775 19.4176 13.5029 20.4622 12.1134 21.3438C11.7396 21.6601 11.1934 21.6601 10.8196 21.3438C8.75919 20.0022 6.93835 18.3155 5.46252 16.3509C4.16877 14.6451 3.43085 12.5943 3.35419 10.4572C3.37335 6.00093 7.03419 2.40718 11.5288 2.41677ZM11.5288 13.2076C12.2092 13.2076 12.8609 12.9488 13.34 12.4793C13.8384 11.9905 14.1172 11.3398 14.1172 10.6584C14.1172 9.2401 12.9567 8.09968 11.5288 8.09968C10.1009 8.09968 8.95086 9.2401 8.95086 10.6584C8.95086 12.0586 10.0817 13.1884 11.5 13.2076H11.5288Z" fill="#200E32"/>
</g>
</g>
</svg>
