<svg width="19" height="20" viewBox="0 0 19 20" fill="none" xmlns="http://www.w3.org/2000/svg">
<g id="Group 18461">
<path id="Calendar" fill-rule="evenodd" clip-rule="evenodd" d="M14.028 1.23659L14.0291 1.95498C16.9053 2.16188 18.8053 3.96073 18.8084 6.71935L18.8197 14.7941C18.8238 17.8017 16.7651 19.6523 13.4652 19.6571L5.4045 19.6667C2.12518 19.6705 0.0406781 17.7759 0.0365545 14.7596L0.0252145 6.77969C0.0210908 4.00287 1.85405 2.20881 4.73028 1.96648L4.72925 1.24809C4.72822 0.82663 5.06842 0.509581 5.52202 0.509581C5.97562 0.508623 6.31582 0.824715 6.31685 1.24617L6.31788 1.91667L12.4415 1.909L12.4404 1.23851C12.4394 0.817052 12.7796 0.50096 13.2332 0.500002C13.6765 0.499044 14.027 0.815136 14.028 1.23659ZM1.61386 7.07561L17.2218 7.05645V6.7212C17.1775 4.66182 16.0517 3.58136 14.0312 3.42044L14.0322 4.15799C14.0322 4.56986 13.6827 4.89649 13.2394 4.89649C12.7858 4.89745 12.4446 4.57178 12.4446 4.1599L12.4436 3.38404L6.31996 3.3917L6.32099 4.16661C6.32099 4.57944 5.98182 4.90511 5.52822 4.90511C5.07462 4.90607 4.73339 4.58136 4.73339 4.16852L4.73236 3.43098C2.72209 3.61584 1.60974 4.70013 1.61283 6.77772L1.61386 7.07561ZM12.8055 11.429V11.4396C12.8158 11.8802 13.2075 12.2145 13.6828 12.2049C14.1467 12.1944 14.5168 11.8294 14.5065 11.3888C14.4848 10.9673 14.1127 10.6235 13.6498 10.6244C13.1756 10.634 12.8044 10.9884 12.8055 11.429ZM13.6569 15.7298C13.1827 15.7202 12.8002 15.3572 12.7992 14.9166C12.7889 14.476 13.1693 14.111 13.6435 14.1005H13.6538C14.1383 14.1005 14.5311 14.4635 14.5311 14.9137C14.5321 15.3639 14.1404 15.7288 13.6569 15.7298ZM8.55804 11.4445C8.57866 11.8851 8.97144 12.2289 9.44565 12.2098C9.90956 12.1897 10.2797 11.8257 10.259 11.3851C10.2477 10.954 9.86626 10.6188 9.40236 10.6198C8.92814 10.6389 8.55701 11.0039 8.55804 11.4445ZM9.44986 15.6868C8.97564 15.7059 8.58389 15.3621 8.56225 14.9215C8.56225 14.4809 8.93234 14.1169 9.40656 14.0968C9.87047 14.0958 10.2529 14.431 10.2632 14.8611C10.2849 15.3027 9.91377 15.6667 9.44986 15.6868ZM4.31074 11.4779C4.33136 11.9185 4.72413 12.2634 5.19835 12.2432C5.66226 12.2241 6.03236 11.8591 6.01071 11.4185C6.0004 10.9875 5.61896 10.6523 5.15402 10.6532C4.67981 10.6724 4.30971 11.0373 4.31074 11.4779ZM5.20243 15.6915C4.72821 15.7116 4.33647 15.3667 4.31482 14.9261C4.31379 14.4855 4.68492 14.1206 5.15913 14.1014C5.62304 14.1005 6.00551 14.4357 6.01582 14.8667C6.03747 15.3074 5.66737 15.6723 5.20243 15.6915Z" fill="#D2CFD6"/>
</g>
</svg>
